<?xml version="1.0" encoding="UTF-8" standalone="no"?>
<svg
   xmlns:dc="http://purl.org/dc/elements/1.1/"
   xmlns:cc="http://creativecommons.org/ns#"
   xmlns:rdf="http://www.w3.org/1999/02/22-rdf-syntax-ns#"
   xmlns:svg="http://www.w3.org/2000/svg"
   xmlns="http://www.w3.org/2000/svg"
   id="67ac1ffc-13cc-11ee-ac83-0242ac110005"
   version="1.1"
   width="612.0pt"
   viewBox="0 0 612.0 792.0"
   height="792.0pt">
  <metadata
     id="metadata37">
    <rdf:RDF>
      <cc:Work
         rdf:about="">
        <dc:format>image/svg+xml</dc:format>
        <dc:type
           rdf:resource="http://purl.org/dc/dcmitype/StillImage" />
      </cc:Work>
    </rdf:RDF>
  </metadata>
  <defs
     id="defs35" />
  <g
     id="g2" />
  <g
     id="g26">
    <path
       id="path4"
       d="M 372.1834,365.704 C 372.1055,361.5351 380.9468,363.3488 385.9171,363.5766 387.9738,363.8032 387.8015,360.3912 387.6071,358.3071 387.2934,354.2816 378.2262,355.1897 378.4927,351.0215 379.3596,344.7626 387.0669,333.202 390.5313,333.5346 393.6408,333.8823 396.1335,335.2409 398.3564,337.8378 399.9874,340.2283 401.1051,342.3537 402.7473,343.8839 404.2938,344.5347 406.5606,342.2686 407.0772,340.4103 408.3992,334.4179 401.1202,330.2549 403.0923,326.9267 406.0623,323.3707 411.7713,322.9719 415.6645,322.0408 419.028,321.6414 424.2413,319.8277 424.8365,324.1577 L 424.9131,334.947 C 424.9209,337.735 433.3079,338.4153 434.527,336.6998 436.676,332.3338 434.4413,322.3217 438.7909,322.7984 445.095,323.4538 448.9646,325.8169 454.062,328.7764 456.6562,330.9352 456.2024,332.7482 454.9158,334.8455 453.2134,338.0303 449.6993,341.2255 449.3621,345.3093 449.8551,349.0703 454.1622,347.4818 456.797,345.2608 458.9603,343.2527 461.8688,338.8684 465.4759,341.3067 470.5752,344.6296 470.6564,348.974 473.1354,353.8547 475.0165,357.909 465.4104,359.4418 461.2579,362.1885 458.4699,363.5766 460.8277,365.9993 461.2939,367.9007 461.8688,370.1498 463.6825,369.4695 465.1917,367.8752 467.7172,365.7734 472.5232,362.2167 475.1442,364.2759 480.3365,368.3224 479.5495,374.0025 480.7405,380.287 481.3632,385.11 467.9889,382.1635 465.7542,384.8278 464.1363,387.6027 471.2529,389.2212 474.4947,390.3926 481.815,393.0444 486.3492,393.4969 488.876,399.0061 490.2032,403.2437 490.4291,407.778 485.5,409.908 472.6377,412.0759 459.3754,407.778 450.1936,404.5127 438.0674,399.8442 434.4413,388.9639 432.1653,378.5138 431.2676,373.3228 428.5484,367.883 423.8386,366.7798 420.8437,366.3457 418.5749,366.9762 416.4181,369.0027 414.4938,370.6029 413.5869,372.4167 413.8233,374.2801 414.7478,377.1742 418.1212,378.083 420.3644,376.4127 422.2004,374.9093 424.2413,374.9093 425.1704,376.3826 425.998,378.3718 426.2802,380.8036 424.3932,382.4627 421.0683,385.3378 417.158,385.3195 413.5267,384.7086 409.9602,383.7494 406.7872,382.6173 405.6053,379.5903 404.0666,375.3638 404.3488,367.5399 407.6842,364.3447 411.3214,360.8561 414.9475,357.4565 420.2394,356.8299 427.6402,356.0953 436.4809,359.4961 439.0711,366.6829 440.2792,371.208 441.2417,375.1359 442.6029,380.1697 444.0781,383.9687 444.1888,386.9237 446.5675,390.572 453.7019,400.2279 465.2697,400.2979 474.932,402.1778 476.2043,402.4416 477.9623,402.79 478.0088,401.2519 476.8289,393.271 460.7354,395.0834 455.2373,384.8945 451.8954,378.3102 453.7084,374.0025 450.7698,367.062 445.8113,357.3 436.4809,347.9356 423.7181,347.6488 412.2283,347.9356 402.0264,351.7882 397.6911,361.3256 394.7349,367.1471 393.8673,374.4563 394.7251,379.6597 396.1335,386.4693 402.7067,392.1363 407.8643,392.6326 419.2546,393.271 425.8278,397.3508 431.4254,404.6325 433.7616,408.2311 432.8554,410.9517 429.1481,410.9549 427.415,411.4041 423.561,411.6313 420.1785,411.6555 413.5869,411.8585 407.0137,412.5375 406.9194,406.7369 407.0137,403.6968 408.6009,400.0701 405.7317,399.1757 398.103,397.4104 397.4934,411.4041 390.1024,408.3418 385.5505,405.5603 376.4125,399.8442 379.139,395.3558 381.6271,391.9097 384.1191,391.4566 386.9909,389.6835 388.8799,388.0571 386.16,383.0697 384.3202,383.1719 L 374.6578,382.5721 C 370.7455,382.8432 372.1055,374.2297 372.0557,369.0151 L 372.1834,365.704 Z"
       style="fill-rule:evenodd;fill:#1e4285;" />
    <path
       id="path6"
       d="M 121.9969,398.6204 C 114.5011,406.0632 103.8193,410.4364 92.5809,410.4364 81.1467,410.4364 71.4528,406.5261 63.8294,399.1076 56.532,391.9889 52.8293,383.1666 52.8293,372.6393 52.8293,362.8145 56.9674,353.7911 64.5922,346.8742 72.215,339.9572 81.5729,335.7811 92.573,335.7811 102.919,335.7811 111.2057,337.0546 121.204,342.6018 L 112.6095,359.7024 C 106.6714,355.6422 100.0982,354.5088 92.5809,354.5592 81.7084,354.6306 73.9789,364.2039 73.9789,373.3687 73.9789,383.6394 80.9267,390.3546 92.3543,390.3546 95.2379,390.3546 98.3762,390.0849 100.9376,389.4962 L 100.8977,371.4738 121.8437,371.4535 121.9969,398.6204 Z"
       style="fill-rule:evenodd;fill:#1e4285;" />
    <path
       id="path8"
       d="M 145.8763,346.9881 C 153.5004,340.0699 164.7833,335.7104 175.7834,335.7104 186.1307,335.7104 196.1021,338.6274 203.6162,345.4435 211.4584,352.5622 215.8807,363.2172 215.8807,372.9411 215.8807,383.1666 212.0162,392.4034 204.7195,399.321 197.2041,406.5392 186.0037,410.3355 175.2223,410.3355 163.7868,410.3355 154.273,407.3229 145.5109,399.9005 137.7316,393.3116 133.604,383.1666 133.604,372.6393 133.604,362.8145 138.2515,353.9051 145.8763,346.9881 Z"
       style="fill-rule:evenodd;fill:#1e4285;" />
    <path
       id="path10"
       d="M 175.2223,389.971 C 186.3304,389.971 194.4626,384.4703 194.4626,372.8409 194.4626,362.7163 184.8192,354.9992 175.4383,354.9992 163.8948,354.9992 156.6688,365.7387 156.6688,372.8409 156.6688,384.0689 164.5483,389.971 175.2223,389.971 Z"
       style="fill-rule:evenodd;fill:#ffffff;" />
    <path
       id="path12"
       d="M 228.7089,408.5585 L 228.7089,337.276 238.5553,337.276 268.7937,368.7159 268.7937,337.276 290.4632,337.276 290.4632,408.5585 280.1474,408.5585 250.3797,378.8307 250.3797,408.5585 228.7089,408.5585 Z"
       style="fill-rule:evenodd;fill:#1e4285;" />
    <path
       id="path14"
       d="M 307.4151,337.9661 L 333.8789,337.9661 C 356.8834,337.9615 362.3187,349.598 362.6559,355.0568 363.2196,364.2072 359.7441,369.8722 352.0689,373.4047 358.5819,375.2321 362.5655,381.3627 362.5655,389.0045 362.5655,395.7218 360.7459,399.4834 355.845,403.5934 350.1806,408.3057 341.1749,409.246 330.9383,409.246 L 307.4151,409.246 307.4151,337.9661 Z"
       style="fill-rule:evenodd;fill:#1e4285;" />
    <path
       id="path16"
       d="M 332.1359,392.2129 C 338.7091,392.1376 340.6511,390.5923 341.114,386.8896 341.5056,383.7494 340.145,380.1233 331.8091,380.1776 L 328.4299,380.1776 328.4299,392.2129 332.1359,392.2129 Z"
       style="fill-rule:evenodd;fill:#ffffff;" />
    <path
       id="path18"
       d="M 330.2848,365.1265 C 337.3622,365.1265 340.5974,365.389 340.6308,359.6199 340.6511,355.87 337.8003,354.2639 331.9185,354.2639 L 328.4299,354.2639 328.4299,365.1265 330.2848,365.1265 Z"
       style="fill-rule:evenodd;fill:#ffffff;" />
    <path
       id="path20"
       d="M 567.2306,408.8774 L 544.721,408.8774 528.2668,381.3843 528.2668,408.8774 506.4263,408.8774 506.4263,337.5948 532.1286,337.5948 C 540.2961,337.5948 545.5113,337.9615 551.7329,341.5044 558.8201,345.5417 562.1883,352.6329 562.1883,361.4565 562.1883,370.29 558.2047,375.1359 549.6698,377.7628 L 567.2306,408.8774 Z"
       style="fill-rule:evenodd;fill:#1e4285;" />
    <path
       id="path22"
       d="M 529.9868,370.4792 C 536.9339,370.4792 541.2063,368.2726 541.2063,361.8566 541.2063,355.9421 536.5725,353.5351 530.6036,353.5351 L 528.2668,353.5351 528.2668,370.4792 529.9868,370.4792 Z"
       style="fill-rule:evenodd;fill:#ffffff;" />
    <path
       id="path24"
       d="M 71.0574,440.4921 L 75.3025,441.0843 C 74.8327,444.0038 73.6481,446.2832 71.7313,447.9365 69.8145,449.5897 67.4547,450.4129 64.6658,450.4129 61.1693,450.4129 58.3559,449.2691 56.2339,446.9827 54.1026,444.6952 53.0416,441.4213 53.0416,437.1599 53.0416,434.3966 53.5022,431.9855 54.4162,429.9125 55.3292,427.8477 56.7189,426.2935 58.5949,425.2651 60.4615,424.2286 62.4937,423.711 64.6985,423.711 67.471,423.711 69.7493,424.4094 71.5098,425.8166 73.2785,427.2227 74.4141,429.2223 74.9073,431.8048 L 70.7123,432.446 C 70.3089,430.7275 69.6012,429.4356 68.5728,428.5635 67.5527,427.6996 66.3191,427.2635 64.871,427.2635 62.6826,427.2635 60.9058,428.0459 59.5323,429.6082 58.167,431.1799 57.4838,433.6481 57.4838,437.0363 57.4838,440.4757 58.1425,442.9673 59.4588,444.5226 60.7833,446.0768 62.5019,446.8591 64.6157,446.8591 66.3273,446.8591 67.7509,446.3403 68.8853,445.2956 70.0291,444.2591 70.7531,442.6548 71.0574,440.4921 Z M 77.3755,437.0619 C 77.3755,432.3318 78.6919,428.827 81.3327,426.5488 83.5293,424.6565 86.219,423.711 89.3857,423.711 92.8986,423.711 95.7772,424.8617 98.0146,427.1656 100.2439,429.4601 101.3632,432.6442 101.3632,436.6993 101.3632,439.9895 100.8688,442.5732 99.8825,444.4562 98.8949,446.3403 97.455,447.8047 95.5639,448.8494 93.6798,449.894 91.6149,450.4129 89.3857,450.4129 85.7993,450.4129 82.9032,449.2691 80.6902,446.9734 78.4773,444.6789 77.3755,441.3723 77.3755,437.0619 Z M 81.8177,437.0701 C 81.8177,440.344 82.5336,442.7947 83.9641,444.4154 85.4041,446.0442 87.2054,446.8591 89.3857,446.8591 91.5415,446.8591 93.3346,446.0442 94.7734,444.4072 96.2051,442.7703 96.921,440.2775 96.921,436.9302 96.921,433.7705 96.197,431.3769 94.7571,429.7563 93.3183,428.1275 91.524,427.3137 89.3857,427.3137 87.2054,427.3137 85.4041,428.1193 83.9641,429.7399 82.5336,431.3606 81.8177,433.8043 81.8177,437.0701 Z M 106.4547,449.8695 L 106.4547,424.2531 110.3536,424.2531 110.3536,427.8896 C 112.2295,425.1007 114.9438,423.711 118.4894,423.711 120.0365,423.711 121.4508,423.9896 122.7426,424.5411 124.0345,425.0926 125.0045,425.8248 125.6458,426.7214 126.2882,427.618 126.7406,428.6871 126.9959,429.9207 127.1521,430.7275 127.2338,432.1336 127.2338,434.1413 L 127.2338,449.8695 122.8907,449.8695 122.8907,434.3057 C 122.8907,432.537 122.7263,431.2125 122.3882,430.3404 122.0512,429.4683 121.4508,428.7699 120.595,428.2429 119.7404,427.7252 118.7284,427.4617 117.5764,427.4617 115.7343,427.4617 114.1463,428.0459 112.8055,429.2223 111.4647,430.3905 110.7978,432.6198 110.7978,435.8937 L 110.7978,449.8695 106.4547,449.8695 Z M 132.1773,442.2188 L 136.4713,441.5286 C 136.7104,443.2471 137.3843,444.5634 138.4872,445.4845 139.589,446.3986 141.1362,446.8591 143.1101,446.8591 145.1096,446.8591 146.5904,446.4557 147.5604,445.6408 148.5235,444.8351 149.0085,443.8814 149.0085,442.7866 149.0085,441.8084 148.5724,441.0342 147.7085,440.4757 147.0999,440.0886 145.6191,439.6036 143.2663,439.0032 140.0915,438.2045 137.8949,437.5143 136.6614,436.9302 135.4348,436.3379 134.5056,435.5311 133.8725,434.4946 133.2382,433.4662 132.9176,432.3236 132.9176,431.0726 132.9176,429.9288 133.1811,428.876 133.7,427.906 134.2258,426.9347 134.9335,426.1291 135.8301,425.4867 136.5052,424.9935 137.4262,424.5738 138.5863,424.2286 139.7534,423.8835 140.9963,423.711 142.3289,423.711 144.3355,423.711 146.096,423.9978 147.6094,424.5819 149.1321,425.1579 150.2502,425.9484 150.9742,426.9347 151.6901,427.9304 152.1914,429.2549 152.4631,430.9164 L 148.2192,431.5086 C 148.0291,430.176 147.4695,429.1313 146.5484,428.3828 145.6273,427.6343 144.3273,427.2635 142.6414,427.2635 140.6593,427.2635 139.2357,427.5935 138.3881,428.2511 137.5417,428.9098 137.1138,429.6828 137.1138,430.5631 137.1138,431.1227 137.2863,431.6322 137.6396,432.0846 137.994,432.5451 138.5443,432.9322 139.301,433.2365 139.7371,433.4009 141.0044,433.7705 143.1264,434.3465 146.187,435.1615 148.3252,435.8354 149.5425,436.3542 150.7609,436.8719 151.7146,437.6367 152.406,438.6243 153.1055,439.6199 153.4506,440.8535 153.4506,442.3342 153.4506,443.7741 153.0309,445.1312 152.1833,446.4068 151.3368,447.6811 150.1184,448.6687 148.5316,449.3682 146.9355,450.0666 145.1341,450.4129 143.1264,450.4129 139.8035,450.4129 137.2618,449.7215 135.5176,448.348 133.7734,446.9652 132.6634,444.926 132.1773,442.2188 Z M 168.0118,445.9952 L 168.6041,449.8287 C 167.3857,450.0829 166.2921,450.2147 165.3383,450.2147 163.7667,450.2147 162.5495,449.9687 161.6774,449.4661 160.8134,448.9648 160.2048,448.3154 159.8515,447.5004 159.4971,446.6866 159.3245,444.975 159.3245,442.3669 L 159.3245,427.6098 156.1159,427.6098 156.1159,424.2531 159.3245,424.2531 159.3245,417.9187 163.6676,415.3117 163.6676,424.2531 168.0118,424.2531 168.0118,427.6098 163.6676,427.6098 163.6676,442.614 C 163.6676,443.8557 163.7422,444.6544 163.8984,445.0077 164.0465,445.3621 164.2925,445.6408 164.6388,445.8553 164.9839,446.0605 165.4771,446.1678 166.1195,446.1678 166.5964,446.1678 167.2295,446.1106 168.0118,445.9952 Z M 172.2488,449.8695 L 172.2488,424.2531 176.1476,424.2531 176.1476,428.1776 C 177.1433,426.3588 178.0644,425.1579 178.912,424.5819 179.7584,423.9978 180.6888,423.711 181.6997,423.711 183.1641,423.711 184.653,424.1715 186.1675,425.0844 L 184.6203,429.0905 C 183.5675,428.4982 182.5147,428.2021 181.4619,428.2021 180.5151,428.2021 179.6687,428.4901 178.9201,429.0579 178.1716,429.6245 177.6365,430.415 177.3158,431.427 176.8308,432.9649 176.5918,434.6508 176.5918,436.486 L 176.5918,449.8695 172.2488,449.8695 Z M 205.4658,449.8695 L 205.4658,446.0605 C 203.4744,448.9648 200.7765,450.4129 197.3627,450.4129 195.8575,450.4129 194.4514,450.1249 193.1432,449.5489 191.835,448.9648 190.8638,448.2408 190.2307,447.3686 189.5976,446.4884 189.1534,445.4192 188.8981,444.1519 188.7255,443.2973 188.6346,441.9483 188.6346,440.105 L 188.6346,424.2531 192.9788,424.2531 192.9788,438.4272 C 192.9788,440.6891 193.0686,442.2188 193.2411,443.0011 193.5128,444.1437 194.0888,445.0321 194.9772,445.6827 195.8575,446.3321 196.9429,446.6609 198.2429,446.6609 199.5429,446.6609 200.7602,446.3321 201.8958,445.6664 203.0302,444.9995 203.837,444.0866 204.3139,442.9428 204.7826,441.8002 205.0216,440.1295 205.0216,437.9504 L 205.0216,424.2531 209.3646,424.2531 209.3646,449.8695 205.4658,449.8695 Z M 232.9162,440.4921 L 237.1613,441.0843 C 236.6915,444.0038 235.5069,446.2832 233.5901,447.9365 231.6734,449.5897 229.3135,450.4129 226.5247,450.4129 223.0281,450.4129 220.2147,449.2691 218.0927,446.9827 215.9614,444.6952 214.9004,441.4213 214.9004,437.1599 214.9004,434.3966 215.361,431.9855 216.2751,429.9125 217.188,427.8477 218.5777,426.2935 220.4537,425.2651 222.3203,424.2286 224.3525,423.711 226.5573,423.711 229.3299,423.711 231.6081,424.4094 233.3686,425.8166 235.1373,427.2227 236.2729,429.2223 236.7661,431.8048 L 232.5711,432.446 C 232.1677,430.7275 231.46,429.4356 230.4316,428.5635 229.4115,427.6996 228.1779,427.2635 226.7299,427.2635 224.5414,427.2635 222.7646,428.0459 221.3911,429.6082 220.0258,431.1799 219.3426,433.6481 219.3426,437.0363 219.3426,440.4757 220.0013,442.9673 221.3177,444.5226 222.6421,446.0768 224.3607,446.8591 226.4745,446.8591 228.1861,446.8591 229.6097,446.3403 230.7441,445.2956 231.8879,444.2591 232.6119,442.6548 232.9162,440.4921 Z M 250.2908,445.9952 L 250.883,449.8287 C 249.6647,450.0829 248.571,450.2147 247.6173,450.2147 246.0456,450.2147 244.8284,449.9687 243.9563,449.4661 243.0924,448.9648 242.4838,448.3154 242.1305,447.5004 241.776,446.6866 241.6035,444.975 241.6035,442.3669 L 241.6035,427.6098 238.3949,427.6098 238.3949,424.2531 241.6035,424.2531 241.6035,417.9187 245.9465,415.3117 245.9465,424.2531 250.2908,424.2531 250.2908,427.6098 245.9465,427.6098 245.9465,442.614 C 245.9465,443.8557 246.0212,444.6544 246.1774,445.0077 246.3255,445.3621 246.5715,445.6408 246.9178,445.8553 247.2629,446.0605 247.756,446.1678 248.3985,446.1678 248.8753,446.1678 249.5084,446.1106 250.2908,445.9952 Z M 252.9479,437.0619 C 252.9479,432.3318 254.2642,428.827 256.905,426.5488 259.1016,424.6565 261.7914,423.711 264.958,423.711 268.4709,423.711 271.3496,424.8617 273.587,427.1656 275.8162,429.4601 276.9355,432.6442 276.9355,436.6993 276.9355,439.9895 276.4412,442.5732 275.4548,444.4562 274.4673,446.3403 273.0274,447.8047 271.1362,448.8494 269.2521,449.894 267.1873,450.4129 264.958,450.4129 261.3717,450.4129 258.4755,449.2691 256.2626,446.9734 254.0497,444.6789 252.9479,441.3723 252.9479,437.0619 Z M 257.39,437.0701 C 257.39,440.344 258.1059,442.7947 259.5365,444.4154 260.9764,446.0442 262.7778,446.8591 264.958,446.8591 267.1138,446.8591 268.907,446.0442 270.3457,444.4072 271.7775,442.7703 272.4934,440.2775 272.4934,436.9302 272.4934,433.7705 271.7693,431.3769 270.3294,429.7563 268.8907,428.1275 267.0963,427.3137 264.958,427.3137 262.7778,427.3137 260.9764,428.1193 259.5365,429.7399 258.1059,431.3606 257.39,433.8043 257.39,437.0701 Z M 281.9781,449.8695 L 281.9781,424.2531 285.877,424.2531 285.877,428.1776 C 286.8727,426.3588 287.7937,425.1579 288.6414,424.5819 289.4878,423.9978 290.4182,423.711 291.4291,423.711 292.8935,423.711 294.3823,424.1715 295.8969,425.0844 L 294.3497,429.0905 C 293.2969,428.4982 292.244,428.2021 291.1912,428.2021 290.2445,428.2021 289.398,428.4901 288.6495,429.0579 287.901,429.6245 287.3658,430.415 287.0452,431.427 286.5602,432.9649 286.3212,434.6508 286.3212,436.486 L 286.3212,449.8695 281.9781,449.8695 Z M 315.1952,446.6609 C 313.5827,448.0356 312.0274,448.9974 310.5385,449.5652 309.0496,450.133 307.4546,450.4129 305.7431,450.4129 302.9297,450.4129 300.7669,449.7296 299.2524,448.3562 297.739,446.9909 296.9823,445.2385 296.9823,443.1072 296.9823,441.8573 297.2703,440.7136 297.8381,439.6771 298.4141,438.6406 299.1626,437.8186 300.0837,437.1925 301.0129,436.5676 302.0494,436.0907 303.2095,435.7701 304.0653,435.5474 305.356,435.334 307.0757,435.1195 310.5805,434.7091 313.1711,434.2066 314.8244,433.6306 314.8407,433.0383 314.8501,432.6606 314.8501,432.5043 314.8501,430.7438 314.4385,429.5021 313.6154,428.7781 312.5054,427.7987 310.8521,427.3137 308.6637,427.3137 306.6152,427.3137 305.1018,427.6751 304.1306,428.391 303.1524,429.1068 302.4365,430.373 301.9678,432.2 L 297.7227,431.6077 C 298.1098,429.7901 298.7429,428.3175 299.6313,427.1982 300.5197,426.079 301.8034,425.2243 303.4812,424.6157 305.1508,424.0153 307.1002,423.711 309.305,423.711 311.4934,423.711 313.2784,423.9651 314.6519,424.484 316.0172,425.0016 317.0292,425.6441 317.6716,426.4252 318.3128,427.2064 318.7652,428.1939 319.0287,429.3867 319.1686,430.127 319.2421,431.4597 319.2421,433.3764 L 319.2421,439.1349 C 319.2421,443.1573 319.333,445.6991 319.5137,446.7764 319.6863,447.8537 320.0489,448.882 320.5747,449.8695 L 316.0346,449.8695 C 315.5986,448.9566 315.3188,447.8875 315.1952,446.6609 Z M 314.8501,437.0363 C 313.2702,437.6787 310.9011,438.2208 307.7426,438.6651 305.9483,438.9204 304.6821,439.2084 303.9417,439.529 303.2014,439.8496 302.6336,440.3195 302.2302,440.9281 301.8279,441.5449 301.6215,442.2269 301.6215,442.9848 301.6215,444.1274 302.0576,445.0904 302.9379,445.8553 303.8181,446.6201 305.1018,447.0072 306.7877,447.0072 308.4573,447.0072 309.9462,446.6446 311.2544,445.9124 312.5544,445.1884 313.5174,444.1939 314.126,442.9347 314.5947,441.9565 314.8244,440.5165 314.8244,438.6161 L 314.8501,437.0363 Z M 337.8991,442.2188 L 342.1932,441.5286 C 342.4322,443.2471 343.1061,444.5634 344.2091,445.4845 345.3109,446.3986 346.8581,446.8591 348.832,446.8591 350.8315,446.8591 352.3122,446.4557 353.2823,445.6408 354.2453,444.8351 354.7303,443.8814 354.7303,442.7866 354.7303,441.8084 354.2943,441.0342 353.4303,440.4757 352.8217,440.0886 351.341,439.6036 348.9882,439.0032 345.8134,438.2045 343.6168,437.5143 342.3833,436.9302 341.1567,436.3379 340.2275,435.5311 339.5944,434.4946 338.9601,433.4662 338.6395,432.3236 338.6395,431.0726 338.6395,429.9288 338.903,428.876 339.4218,427.906 339.9477,426.9347 340.6554,426.1291 341.552,425.4867 342.227,424.9935 343.1481,424.5738 344.3082,424.2286 345.4753,423.8835 346.7181,423.711 348.0508,423.711 350.0573,423.711 351.8179,423.9978 353.3312,424.5819 354.8539,425.1579 355.9721,425.9484 356.6961,426.9347 357.412,427.9304 357.9133,429.2549 358.185,430.9164 L 353.941,431.5086 C 353.751,430.176 353.1913,429.1313 352.2703,428.3828 351.3492,427.6343 350.0492,427.2635 348.3633,427.2635 346.3812,427.2635 344.9576,427.5935 344.11,428.2511 343.2635,428.9098 342.8356,429.6828 342.8356,430.5631 342.8356,431.1227 343.0082,431.6322 343.3615,432.0846 343.7159,432.5451 344.2662,432.9322 345.0229,433.2365 345.459,433.4009 346.7263,433.7705 348.8483,434.3465 351.9088,435.1615 354.0471,435.8354 355.2643,436.3542 356.4827,436.8719 357.4364,437.6367 358.1278,438.6243 358.8274,439.6199 359.1725,440.8535 359.1725,442.3342 359.1725,443.7741 358.7528,445.1312 357.9051,446.4068 357.0587,447.6811 355.8403,448.6687 354.2535,449.3682 352.6573,450.0666 350.856,450.4129 348.8483,450.4129 345.5254,450.4129 342.9837,449.7215 341.2395,448.348 339.4953,446.9652 338.3853,444.926 337.8991,442.2188 Z M 365.5396,449.8695 L 365.5396,444.9342 370.4761,444.9342 370.4761,449.8695 365.5396,449.8695 Z M 394.7517,446.6609 C 393.1392,448.0356 391.5839,448.9974 390.095,449.5652 388.6061,450.133 387.0112,450.4129 385.2996,450.4129 382.4862,450.4129 380.3235,449.7296 378.8089,448.3562 377.2956,446.9909 376.5389,445.2385 376.5389,443.1072 376.5389,441.8573 376.8269,440.7136 377.3947,439.6771 377.9706,438.6406 378.7191,437.8186 379.6402,437.1925 380.5695,436.5676 381.606,436.0907 382.7661,435.7701 383.6218,435.5474 384.9125,435.334 386.6322,435.1195 390.137,434.7091 392.7277,434.2066 394.3809,433.6306 394.3973,433.0383 394.4066,432.6606 394.4066,432.5043 394.4066,430.7438 393.995,429.5021 393.1719,428.7781 392.0619,427.7987 390.4087,427.3137 388.2202,427.3137 386.1717,427.3137 384.6583,427.6751 383.6871,428.391 382.7089,429.1068 381.9931,430.373 381.5244,432.2 L 377.2792,431.6077 C 377.6663,429.7901 378.2994,428.3175 379.1878,427.1982 380.0763,426.079 381.36,425.2243 383.0377,424.6157 384.7073,424.0153 386.6567,423.711 388.8615,423.711 391.0499,423.711 392.8349,423.9651 394.2084,424.484 395.5737,425.0016 396.5857,425.6441 397.2281,426.4252 397.8694,427.2064 398.3218,428.1939 398.5853,429.3867 398.7252,430.127 398.7986,431.4597 398.7986,433.3764 L 398.7986,439.1349 C 398.7986,443.1573 398.8896,445.6991 399.0703,446.7764 399.2428,447.8537 399.6054,448.882 400.1313,449.8695 L 395.5912,449.8695 C 395.1551,448.9566 394.8753,447.8875 394.7517,446.6609 Z M 394.4066,437.0363 C 392.8268,437.6787 390.4576,438.2208 387.2992,438.6651 385.5048,438.9204 384.2386,439.2084 383.4983,439.529 382.7579,439.8496 382.1901,440.3195 381.7867,440.9281 381.3844,441.5449 381.1781,442.2269 381.1781,442.9848 381.1781,444.1274 381.6141,445.0904 382.4944,445.8553 383.3747,446.6201 384.6583,447.0072 386.3443,447.0072 388.0139,447.0072 389.5027,446.6446 390.8109,445.9124 392.1109,445.1884 393.074,444.1939 393.6826,442.9347 394.1513,441.9565 394.3809,440.5165 394.3809,438.6161 L 394.4066,437.0363 Z M 406.7036,449.8695 L 406.7036,444.9342 411.6401,444.9342 411.6401,449.8695 406.7036,449.8695 Z M 449.4322,449.8695 L 449.4322,446.6201 C 447.8116,449.1455 445.4261,450.4129 442.2746,450.4129 440.2342,450.4129 438.3594,449.8532 436.656,448.7258 434.9456,447.6077 433.6211,446.036 432.6744,444.0295 431.737,442.0136 431.2683,439.7016 431.2683,437.0864 431.2683,434.5365 431.6962,432.2245 432.5438,430.1434 433.3985,428.0703 434.674,426.4742 436.3762,425.3724 438.0715,424.2613 439.9801,423.711 442.0776,423.711 443.6236,423.711 444.9982,424.0398 446.1991,424.6892 447.4,425.3386 448.3782,426.1944 449.136,427.239 L 449.136,414.5305 453.4791,414.5305 453.4791,449.8695 449.4322,449.8695 Z M 435.7105,437.0946 C 435.7105,440.3685 436.4019,442.8111 437.7916,444.4317 439.1733,446.0523 440.8102,446.8591 442.6943,446.8591 444.5948,446.8591 446.2072,446.085 447.5399,444.539 448.8644,442.993 449.5301,440.632 449.5301,437.456 449.5301,433.9687 448.8562,431.4014 447.4979,429.7644 446.1489,428.1275 444.4794,427.3137 442.4973,427.3137 440.5642,427.3137 438.9517,428.0948 437.6517,429.6665 436.3599,431.237 435.7105,433.7134 435.7105,437.0946 Z M 477.82,441.5775 L 482.3111,442.1698 C 481.6116,444.778 480.3046,446.809 478.396,448.2489 476.4873,449.6888 474.0517,450.4129 471.0821,450.4129 467.3477,450.4129 464.3863,449.2609 462.1978,446.9571 460.0106,444.6625 458.9158,441.4295 458.9158,437.2753 458.9158,432.9812 460.0187,429.642 462.2316,427.2729 464.4446,424.8955 467.3151,423.711 470.8443,423.711 474.2581,423.711 477.047,424.8699 479.2098,427.1982 481.3737,429.5266 482.4592,432.8005 482.4592,437.0199 482.4592,437.2753 482.451,437.6624 482.4347,438.1719 L 463.3579,438.1719 C 463.5223,440.9771 464.3128,443.1329 465.7434,444.6217 467.167,446.1106 468.952,446.8591 471.0821,446.8591 472.6701,446.8591 474.0273,446.4394 475.1465,445.5999 476.2728,444.7617 477.1612,443.4197 477.82,441.5775 Z M 463.6051,434.6182 L 477.869,434.6182 C 477.6801,432.4635 477.1286,430.8511 476.232,429.7726 474.8586,428.103 473.0654,427.2635 470.8688,427.2635 468.8786,427.2635 467.2078,427.9304 465.8507,429.2631 464.5017,430.5957 463.7532,432.3808 463.6051,434.6182 Z M 518.2436,440.4921 L 522.4887,441.0843 C 522.0188,444.0038 520.8343,446.2832 518.9175,447.9365 517.0007,449.5897 514.6409,450.4129 511.852,450.4129 508.3554,450.4129 505.5421,449.2691 503.4201,446.9827 501.2888,444.6952 500.2278,441.4213 500.2278,437.1599 500.2278,434.3966 500.6883,431.9855 501.6024,429.9125 502.5153,427.8477 503.9051,426.2935 505.7811,425.2651 507.6477,424.2286 509.6799,423.711 511.8847,423.711 514.6572,423.711 516.9354,424.4094 518.696,425.8166 520.4647,427.2227 521.6003,429.2223 522.0935,431.8048 L 517.8985,432.446 C 517.4951,430.7275 516.7874,429.4356 515.759,428.5635 514.7388,427.6996 513.5053,427.2635 512.0572,427.2635 509.8688,427.2635 508.0919,428.0459 506.7185,429.6082 505.3532,431.1799 504.67,433.6481 504.67,437.0363 504.67,440.4757 505.3287,442.9673 506.645,444.5226 507.9695,446.0768 509.6881,446.8591 511.8019,446.8591 513.5135,446.8591 514.937,446.3403 516.0715,445.2956 517.2153,444.2591 517.9393,442.6548 518.2436,440.4921 Z M 527.424,449.8695 L 527.424,444.9342 532.3606,444.9342 532.3606,449.8695 527.424,449.8695 Z M 546.9042,449.8695 L 537.2388,424.2531 541.8861,424.2531 547.3648,439.5955 C 547.9571,441.2487 548.5085,442.9673 549.0099,444.7523 549.397,443.4034 549.9321,441.7827 550.6305,439.8834 L 556.3237,424.2531 560.7822,424.2531 551.0829,449.8695 546.9042,449.8695 Z M 562.1556,449.8695 L 562.1556,444.9342 567.0921,444.9342 567.0921,449.8695 562.1556,449.8695 Z"
       style="fill-rule:evenodd;fill:#273786;" />
  </g>
  <g
     id="g28" />
  <g
     id="g30" />
</svg>
